<svg width="24" height="24" viewBox="0 0 24 24" fill="none" xmlns="http://www.w3.org/2000/svg">
<path d="M17.4976 16.7186L16.7506 17.3833C16.9403 17.5966 17.2122 17.7186 17.4976 17.7186C17.7831 17.7186 18.0549 17.5966 18.2447 17.3833L17.4976 16.7186ZM14.4425 19.2164L15.2201 18.5877L14.4425 19.2164ZM20.5527 19.2164L19.7751 18.5877L20.5527 19.2164ZM17.3152 21.9013L17.9634 21.1398L17.3152 21.9013ZM17.4476 21.993L17.1719 22.9543L17.4476 21.993ZM17.68 21.9013L17.0318 21.1398L17.68 21.9013ZM17.5476 21.993L17.8233 22.9543L17.5476 21.993ZM3 20C3 20.5523 3.44772 21 4 21C4.55228 21 5 20.5523 5 20H3ZM18.2447 16.0538C17.2465 14.9321 15.4759 14.5539 14.1195 15.668L15.3888 17.2135C15.7859 16.8874 16.3492 16.9323 16.7506 17.3833L18.2447 16.0538ZM14.1195 15.668C12.8288 16.728 12.6224 18.5558 13.6648 19.8451L15.2201 18.5877C14.8854 18.1738 14.926 17.5936 15.3888 17.2135L14.1195 15.668ZM21.3304 19.8451C22.3634 18.5673 22.1954 16.7222 20.8652 15.6595L19.6169 17.222C20.0704 17.5843 20.1191 18.1622 19.7751 18.5877L21.3304 19.8451ZM20.8652 15.6595C19.5042 14.5721 17.756 14.9238 16.7506 16.0538L18.2447 17.3833C18.6387 16.9405 19.1943 16.8844 19.6169 17.222L20.8652 15.6595ZM13.6648 19.8451C14.0074 20.2688 14.6416 20.8692 15.2087 21.3837C15.7955 21.9162 16.3796 22.4181 16.667 22.6628L17.9634 21.1398C17.6831 20.9012 17.117 20.4147 16.5525 19.9025C15.9683 19.3725 15.45 18.8721 15.2201 18.5877L13.6648 19.8451ZM18.3282 22.6628C18.6156 22.4181 19.1997 21.9162 19.7866 21.3837C20.3537 20.8692 20.9878 20.2688 21.3304 19.8451L19.7751 18.5877C19.5452 18.8721 19.0269 19.3725 18.4427 19.9025C17.8782 20.4147 17.3121 20.9012 17.0318 21.1398L18.3282 22.6628ZM16.667 22.6628C16.687 22.6798 16.7452 22.7303 16.805 22.7735C16.8771 22.8257 17.0007 22.9052 17.1719 22.9543L17.7232 21.0318C17.8574 21.0703 17.9466 21.1309 17.9777 21.1534C17.9919 21.1637 17.9992 21.1699 17.9939 21.1656C17.9886 21.1612 17.981 21.1548 17.9634 21.1398L16.667 22.6628ZM17.0318 21.1398C17.0142 21.1548 17.0066 21.1612 17.0013 21.1656C16.996 21.1699 17.0033 21.1637 17.0175 21.1534C17.0486 21.1309 17.1378 21.0703 17.272 21.0318L17.8233 22.9543C17.9945 22.9052 18.1181 22.8257 18.1902 22.7735C18.25 22.7303 18.3082 22.6798 18.3282 22.6628L17.0318 21.1398ZM17.1719 22.9543C17.3844 23.0152 17.6108 23.0152 17.8233 22.9543L17.272 21.0318C17.4198 20.9894 17.5754 20.9894 17.7232 21.0318L17.1719 22.9543ZM16 9C16 11.2091 14.2091 13 12 13V15C15.3137 15 18 12.3137 18 9H16ZM12 13C9.79086 13 8 11.2091 8 9H6C6 12.3137 8.68629 15 12 15V13ZM8 9C8 6.79086 9.79086 5 12 5V3C8.68629 3 6 5.68629 6 9H8ZM12 5C14.2091 5 16 6.79086 16 9H18C18 5.68629 15.3137 3 12 3V5ZM5 20C5 18.7285 5.68486 17.5011 6.94315 16.5574C8.20174 15.6134 9.98631 15 12 15V13C9.59541 13 7.37998 13.7297 5.74315 14.9574C4.10601 16.1852 3 17.9578 3 20H5Z" fill="#0336AA"/>
</svg>
