<svg width="24" height="24" viewBox="0 0 24 24" fill="none" xmlns="http://www.w3.org/2000/svg">
<path d="M8 13C7.44772 13 7 13.4477 7 14C7 14.5523 7.44772 15 8 15V13ZM8 9C7.44772 9 7 9.44772 7 10C7 10.5523 7.44772 11 8 11V9ZM8 5C7.44772 5 7 5.44772 7 6C7 6.55228 7.44772 7 8 7V5ZM10 21C10.5523 21 11 20.5523 11 20C11 19.4477 10.5523 19 10 19V21ZM5.07805 19.7748L5.53903 18.8874H5.53902L5.07805 19.7748ZM4.22517 18.9219L3.33776 19.3829L3.33776 19.3829L4.22517 18.9219ZM16.9219 2.22517L16.461 3.11259L16.461 3.11259L16.9219 2.22517ZM17.7748 3.07805L16.8874 3.53902V3.53903L17.7748 3.07805ZM5.07805 2.22517L4.61708 1.33776L5.07805 2.22517ZM4.22517 3.07805L3.33776 2.61708L4.22517 3.07805ZM17.2401 12.3529L16.3835 12.8688L16.3835 12.8688L17.2401 12.3529ZM18.4596 14.378L19.3163 13.8621L19.3163 13.8621L18.4596 14.378ZM18.6269 14.4946L18.8144 13.5123H18.8144L18.6269 14.4946ZM20.5554 14.8625L20.7428 13.8803H20.7428L20.5554 14.8625ZM20.6914 15.2785L21.423 15.9603V15.9603L20.6914 15.2785ZM19.3265 16.7434L20.0581 17.4251L20.0581 17.4251L19.3265 16.7434ZM19.2665 16.9732L20.2379 16.7356V16.7356L19.2665 16.9732ZM19.8696 19.4385L18.8982 19.6761H18.8982L19.8696 19.4385ZM19.5037 19.7155L19.9958 18.845H19.9958L19.5037 19.7155ZM17.1506 18.3853L16.6585 19.2559L16.6585 19.2559L17.1506 18.3853ZM16.9046 18.3853L16.4124 17.5148L16.4124 17.5148L16.9046 18.3853ZM14.5515 19.7155L15.0436 20.5861H15.0436L14.5515 19.7155ZM14.1856 19.4385L13.2143 19.2009L14.1856 19.4385ZM14.7875 16.9779L15.7589 17.2154L14.7875 16.9779ZM14.7225 16.7427L14.0112 17.4457L14.0112 17.4457L14.7225 16.7427ZM13.3296 15.3334L12.6183 16.0364L13.3296 15.3334ZM13.4605 14.9121L13.2731 13.9299L13.4605 14.9121ZM15.3741 14.5471L15.1866 13.5648L15.3741 14.5471ZM15.5405 14.4319L16.3936 14.9536L15.5405 14.4319ZM16.8127 12.3515L17.6658 12.8732V12.8732L16.8127 12.3515ZM8 15H10V13H8V15ZM8 11H14V9H8V11ZM8 7H14V5H8V7ZM7.22 3H14.78V1H7.22V3ZM17 5.22V8H19V5.22H17ZM10 19H7.22V21H10V19ZM5 16.78V5.22H3V16.78H5ZM7.22 19C6.63372 19 6.25517 18.9992 5.96722 18.9753C5.69125 18.9524 5.58924 18.9135 5.53903 18.8874L4.61708 20.6622C5.00034 20.8613 5.39981 20.935 5.8017 20.9684C6.19162 21.0008 6.66729 21 7.22 21V19ZM3 16.78C3 17.3327 2.9992 17.8084 3.03158 18.1983C3.06495 18.6002 3.13867 18.9997 3.33776 19.3829L5.11259 18.461C5.0865 18.4108 5.04763 18.3088 5.02472 18.0328C5.0008 17.7448 5 17.3663 5 16.78H3ZM5.53902 18.8874C5.35638 18.7925 5.20746 18.6436 5.11259 18.461L3.33776 19.3829C3.62239 19.9309 4.06915 20.3776 4.61708 20.6622L5.53902 18.8874ZM14.78 3C15.3663 3 15.7448 3.0008 16.0328 3.02472C16.3088 3.04763 16.4108 3.0865 16.461 3.11259L17.3829 1.33776C16.9997 1.13867 16.6002 1.06495 16.1983 1.03158C15.8084 0.999196 15.3327 1 14.78 1V3ZM19 5.22C19 4.66729 19.0008 4.19162 18.9684 3.8017C18.935 3.39982 18.8613 3.00034 18.6622 2.61708L16.8874 3.53903C16.9135 3.58924 16.9524 3.69125 16.9753 3.96722C16.9992 4.25517 17 4.63372 17 5.22H19ZM16.461 3.11259C16.6436 3.20746 16.7925 3.35638 16.8874 3.53902L18.6622 2.61708C18.3776 2.06915 17.9309 1.62239 17.3829 1.33776L16.461 3.11259ZM7.22 1C6.66729 1 6.19162 0.999196 5.8017 1.03158C5.39981 1.06495 5.00034 1.13867 4.61708 1.33776L5.53903 3.11259C5.58924 3.0865 5.69125 3.04763 5.96722 3.02472C6.25517 3.0008 6.63372 3 7.22 3V1ZM5 5.22C5 4.63372 5.0008 4.25517 5.02472 3.96722C5.04763 3.69125 5.0865 3.58924 5.11259 3.53903L3.33776 2.61708C3.13867 3.00034 3.06495 3.39982 3.03158 3.8017C2.9992 4.19162 3 4.66729 3 5.22H5ZM4.61708 1.33776C4.06915 1.62239 3.62239 2.06915 3.33776 2.61708L5.11259 3.53903C5.20746 3.35638 5.35638 3.20746 5.53903 3.11259L4.61708 1.33776ZM16.3835 12.8688L17.603 14.8939L19.3163 13.8621L18.0968 11.837L16.3835 12.8688ZM18.4395 15.4769L20.368 15.8448L20.7428 13.8803L18.8144 13.5123L18.4395 15.4769ZM19.9598 14.5968L18.5949 16.0617L20.0581 17.4251L21.423 15.9603L19.9598 14.5968ZM18.2952 17.2108L18.8982 19.6761L20.8409 19.2009L20.2379 16.7356L18.2952 17.2108ZM19.9958 18.845L17.6427 17.5148L16.6585 19.2559L19.0116 20.5861L19.9958 18.845ZM16.4124 17.5148L14.0594 18.845L15.0436 20.5861L17.3967 19.2559L16.4124 17.5148ZM15.157 19.6761L15.7589 17.2154L13.8161 16.7403L13.2143 19.2009L15.157 19.6761ZM15.4337 16.0398L14.0408 14.6305L12.6183 16.0364L14.0112 17.4457L15.4337 16.0398ZM13.6479 15.8944L15.5615 15.5293L15.1866 13.5648L13.2731 13.9299L13.6479 15.8944ZM16.3936 14.9536L17.6658 12.8732L15.9595 11.8298L14.6874 13.9102L16.3936 14.9536ZM15.5615 15.5293C15.9076 15.4633 16.2098 15.2542 16.3936 14.9536L14.6874 13.9102C14.7977 13.7298 14.979 13.6044 15.1866 13.5648L15.5615 15.5293ZM14.0408 14.6305C14.4626 15.0573 14.2374 15.782 13.6479 15.8944L13.2731 13.9299C12.2908 14.1173 11.9153 15.3251 12.6183 16.0364L14.0408 14.6305ZM15.7589 17.2154C15.862 16.7937 15.7389 16.3486 15.4337 16.0398L14.0112 17.4457C13.8281 17.2604 13.7542 16.9933 13.8161 16.7403L15.7589 17.2154ZM14.0594 18.845C14.6313 18.5217 15.3131 19.0379 15.157 19.6761L13.2143 19.2009C12.9541 20.2646 14.0903 21.1249 15.0436 20.5861L14.0594 18.845ZM17.6427 17.5148C17.261 17.299 16.7942 17.299 16.4124 17.5148L17.3967 19.2559C17.1676 19.3853 16.8875 19.3853 16.6585 19.2559L17.6427 17.5148ZM18.8982 19.6761C18.7421 19.0379 19.4238 18.5217 19.9958 18.845L19.0116 20.5861C19.9648 21.125 21.1011 20.2646 20.8409 19.2009L18.8982 19.6761ZM18.5949 16.0617C18.3078 16.3698 18.1951 16.8017 18.2952 17.2108L20.2379 16.7356C20.2979 16.981 20.2304 17.2402 20.0581 17.4251L18.5949 16.0617ZM20.368 15.8448C19.7883 15.7342 19.5575 15.0285 19.9598 14.5968L21.423 15.9603C22.0935 15.2407 21.7088 14.0646 20.7428 13.8803L20.368 15.8448ZM17.603 14.8939C17.7863 15.1983 18.0905 15.4103 18.4395 15.4769L18.8144 13.5123C19.0238 13.5523 19.2063 13.6795 19.3163 13.8621L17.603 14.8939ZM18.0968 11.837C17.6128 11.0334 16.4489 11.0294 15.9595 11.8298L17.6658 12.8732C17.3722 13.3534 16.6738 13.351 16.3835 12.8688L18.0968 11.837Z" fill="#0336AA"/>
</svg>
